<svg xmlns="http://www.w3.org/2000/svg" viewBox="-100 -100 200 200">
  <defs>
    <linearGradient id="bismuth" x1="0" y1="-1" x2="0" y2="1">
      <stop offset="0%"   stop-color="#64C8D2"/>
      <stop offset="20%"  stop-color="#DCC878"/>
      <stop offset="45%"  stop-color="#FFD264"/>
      <stop offset="70%"  stop-color="#C896C8"/>
      <stop offset="100%" stop-color="#A064C8"/>
    </linearGradient>
    <linearGradient id="sheen" x1="-0.5" y1="-0.5" x2="0.5" y2="0.5">
      <stop offset="0%"   stop-color="#ffffff" stop-opacity="0.12"/>
      <stop offset="50%"  stop-color="#ffffff" stop-opacity="0.03"/>
      <stop offset="100%" stop-color="#ffffff" stop-opacity="0"/>
    </linearGradient>
  </defs>

  <polygon points="0,-88 81,-25 88,0 81,25 0,88 -81,25 -88,0 -81,-25"
           fill="url(#bismuth)" stroke="#000000" stroke-opacity="0.1" stroke-width="1"/>

  <polygon points="0,-75 69,-21 75,0 69,21 0,75 -69,21 -75,0 -69,-21"
           fill="#64C8D2" fill-opacity="0.15" stroke="#ffffff" stroke-opacity="0.08" stroke-width="0.5"/>
  <polygon points="0,-62 57,-17 62,0 57,17 0,62 -57,17 -62,0 -57,-17"
           fill="#DCC878" fill-opacity="0.15" stroke="#ffffff" stroke-opacity="0.08" stroke-width="0.5"/>
  <polygon points="0,-49 45,-14 49,0 45,14 0,49 -45,14 -49,0 -45,-14"
           fill="#C896C8" fill-opacity="0.15" stroke="#ffffff" stroke-opacity="0.08" stroke-width="0.5"/>
  <polygon points="0,-36 33,-10 36,0 33,10 0,36 -33,10 -36,0 -33,-10"
           fill="#A064C8" fill-opacity="0.15" stroke="#ffffff" stroke-opacity="0.08" stroke-width="0.5"/>
  <polygon points="0,-23 21,-6 23,0 21,6 0,23 -21,6 -23,0 -21,-6"
           fill="#DC8CB4" fill-opacity="0.15" stroke="#ffffff" stroke-opacity="0.08" stroke-width="0.5"/>
  <polygon points="0,-10 9,-3 10,0 9,3 0,10 -9,3 -10,0 -9,-3"
           fill="#50B4C8" fill-opacity="0.2" stroke="#ffffff" stroke-opacity="0.08" stroke-width="0.5"/>

  <polygon points="0,-88 81,-25 88,0 81,25 0,88 -81,25 -88,0 -81,-25"
           fill="url(#sheen)"/>
</svg>
